<?xml version="1.0" standalone="no"?><!DOCTYPE svg PUBLIC "-//W3C//DTD SVG 1.1//EN"
        "http://www.w3.org/Graphics/SVG/1.1/DTD/svg11.dtd">
<svg t="1622466818279" class="icon" viewBox="0 0 1024 1024" version="1.1" xmlns="http://www.w3.org/2000/svg" p-id="1823"
     width="200" height="200">
    <defs>
        <style type="text/css"></style>
    </defs>
    <path d="M903.534705 436.990151c-0.904221 6.329547-3.931396 12.148012-8.570442 16.551176-4.61939 4.363849-113.44042 87.139384-285.262066 74.126464a413.091394 413.091394 0 0 1-56.985579-8.413187 361.098687 361.098687 0 0 0-49.810783-7.489308c-50.203922-3.793797-103.788844 4.442477-147.034196 22.625181-47.825428 20.089432-100.230931 50.125294-119.848595 90.107588l69.644673 365.482193a28.365019 28.365019 0 0 1-30.035862 33.927944 28.384676 28.384676 0 0 1-23.077292-15.116216l-1.081134-2.024669a27.814624 27.814624 0 0 1-2.712663-7.725192L56.083067 44.833439a28.581246 28.581246 0 0 1-0.176913-10.182315l0.058971-0.412796a28.502618 28.502618 0 1 1 56.022388-1.002506l10.182314 50.380835C199.402094 48.194782 295.583688 26.35588 359.70475 31.211153c35.048392 2.653692 71.059976 10.457512 110.079077 23.804601 34.891136 11.951443 68.976336 27.283886 100.643728 42.065933 37.230316 17.396426 75.502453 27.677025 113.676304 30.566601 55.098509 4.167279 109.961135-6.565431 163.07429-31.903276 40.316462-19.244182 64.39626-40.139549 64.651801-40.355776a28.502618 28.502618 0 0 1 32.375043-3.734826c10.516483 5.66121 16.354606 17.278484 14.644448 29.092328l-55.314736 356.243413zM679.818638 184.280041c-45.093108-3.400657-90.009303-15.430728-133.529852-35.756043-62.233993-29.072671-123.662049-55.589934-190.869257-60.681091-28.502618-2.142611-69.625016 2.850262-112.811397 13.720571-38.743904 9.749861-76.6229 23.529403-108.801374 39.471212l82.559308 424.492441c24.925048-27.716339 78.90311-67.32515 117.371816-83.483186 52.071335-21.878217 113.656647-31.431508 173.453174-26.910403 18.654472 1.415302 38.095223 4.324535 57.771859 8.668727 16.275978 3.57757 32.787839 5.995378 49.024503 7.233768 124.192787 9.396036 210.054467-32.807496 234.684661-52.680701l44.680311-282.37249c-47.530573 26.242066-122.345031 55.216451-213.533752 48.297195z m-188.51042 562.720311l137.854387 113.381449 193.817804-237.279382a29.485467 29.485467 0 1 1 41.69245 41.692451l-196.196298 234.900888c-20.22703 25.711327-54.70537 23.686659-78.627912 0l-128.025898-101.626577a29.485467 29.485467 0 0 1 29.485467-51.068829z"
          p-id="1824"></path>
</svg>